<?xml version="1.0"?>
<svg xmlns="http://www.w3.org/2000/svg" height="512px" viewBox="0 0 457 457.17857" width="512px" class=""><g><path d="m454.5 254.304688-212.804688-212.804688c-26.738281-26.746094-62.285156-41.4804688-100.097656-41.5-.015625 0-.035156 0-.0625 0-37.792968 0-73.320312 14.714844-100.035156 41.4375-55.214844 55.210938-55.214844 145.042969 0 200.253906l212.804688 212.808594c1.714843 1.714844 4.035156 2.679688 6.464843 2.679688 2.425781 0 4.75-.964844 6.460938-2.679688l187.269531-187.269531c3.570312-3.570313 3.570312-9.355469 0-12.925781zm-193.730469 180.800781-206.339843-206.34375c-48.082032-48.078125-48.082032-126.316407 0-174.394531 23.265624-23.269532 54.195312-36.082032 87.105468-36.082032h.0625c32.921875.019532 63.875 12.851563 87.171875 36.144532l206.335938 206.339843zm0 0" data-original="#000000" class="active-path" data-old_color="##7C1B1" fill="#7C1B1C"/><path d="m172.132812 128.011719c-.027343-11.773438-4.625-22.851563-12.964843-31.1875 0 0 0 0 0-.003907-8.335938-8.332031-19.398438-12.921874-31.167969-12.921874s-22.839844 4.589843-31.179688 12.925781c-17.222656 17.226562-17.25 45.21875-.0625 62.40625 8.617188 8.617187 19.929688 12.921875 31.242188 12.921875s22.625-4.308594 31.230469-12.914063c8.339843-8.335937 12.921875-19.425781 12.902343-31.226562zm-25.828124 18.292969c-10.097657 10.105468-26.519532 10.078124-36.617188 0-4.882812-4.886719-7.5625-11.363282-7.5625-18.242188.007812-6.898438 2.714844-13.398438 7.625-18.308594 4.882812-4.878906 11.367188-7.570312 18.25-7.570312s13.355469 2.6875 18.242188 7.570312v.003906c4.890624 4.890626 7.589843 11.378907 7.605468 18.285157.007813 6.902343-2.667968 13.386719-7.542968 18.261719zm0 0" data-original="#000000" class="active-path" data-old_color="##7C1B1" fill="#7C1B1C"/><path d="m200.238281 171.789062c-8.1875 8.1875-7.238281 18.964844-1.117187 31.8125 4.820312 10.859376 4.828125 17.070313-.601563 22.5-5.863281 5.867188-14.402343 5.433594-22.074219-2.242187-5.175781-5.171875-8.363281-11.808594-9.65625-17.242187l-8.1875 4.394531c1.03125 5.175781 5.511719 12.9375 11.113282 18.539062 13.710937 13.710938 28.113281 12.589844 37.082031 3.621094 8.53125-8.53125 8.269531-18.28125 2.234375-31.902344-4.914062-11.121093-5.777344-17.332031-.347656-22.761719 3.96875-3.96875 11.726562-5.691406 19.660156 2.242188 5.257812 5.257812 7.417969 10.863281 8.277344 13.792969l8.191406-4.050781c-1.117188-4.046876-4.054688-9.742188-10.003906-15.6875-11.292969-11.296876-25.515625-12.070313-34.570313-3.015626zm0 0" data-original="#000000" class="active-path" data-old_color="##7C1B1" fill="#7C1B1C"/><path d="m233.886719 291.996094 6.292969-6.296875-25.171876-25.171875 20.949219-20.953125 22.59375 22.589843 6.203125-6.203124-22.589844-22.589844 18.363282-18.367188 23.882812 23.882813 6.292969-6.292969-31.386719-31.386719-58.109375 58.109375zm0 0" data-original="#000000" class="active-path" data-old_color="##7C1B1" fill="#7C1B1C"/><path d="m265.378906 325.382812c14.835938 14.832032 37.589844 16.382813 57.59375-3.621093 17.242188-17.242188 19.140625-39.65625 3.273438-55.519531-15.511719-15.515626-39.050782-14.917969-57.503906 3.535156-17.589844 17.585937-18.707032 40.257812-3.363282 55.605468zm54.402344-53.363281c12.503906 12.503907 6.472656 30.605469-5.082031 42.160157-13.191407 13.191406-30.863281 17.414062-42.761719 5.515624-11.816406-11.8125-7.421875-29.660156 4.992188-42.074218 12.765624-12.761719 30.441406-18.015625 42.851562-5.601563zm0 0" data-original="#000000" class="active-path" data-old_color="##7C1B1" fill="#7C1B1C"/></g> </svg>
